Coordinates
version=1
nRows=10
nColumns=63
inDegrees=yes

Units are S.I. units (second, meters, Newtons, ...)
If the header above contains a line with 'inDegrees', this indicates whether rotational values are in degrees (yes) or radians (no).

endheader
time	pelvis_tilt	pelvis_list	pelvis_rotation	pelvis_tx	pelvis_ty	pelvis_tz	hip_flexion_r	hip_adduction_r	hip_rotation_r	knee_angle_r	knee_angle_r_beta	ankle_angle_r	subtalar_angle_r	mtp_angle_r	hip_flexion_l	hip_adduction_l	hip_rotation_l	knee_angle_l	knee_angle_l_beta	ankle_angle_l	subtalar_angle_l	mtp_angle_l	L5_S1_Flex_Ext	L5_S1_Lat_Bending	L5_S1_axial_rotation	L4_L5_Flex_Ext	L4_L5_Lat_Bending	L4_L5_axial_rotation	L3_L4_Flex_Ext	L3_L4_Lat_Bending	L3_L4_axial_rotation	L2_L3_Flex_Ext	L2_L3_Lat_Bending	L2_L3_axial_rotation	L1_L2_Flex_Ext	L1_L2_Lat_Bending	L1_L2_axial_rotation	L1_T12_Flex_Ext	L1_T12_Lat_Bending	L1_T12_axial_rotation	Abs_r3	Abs_r2	Abs_r1	Abs_t1	Abs_t2	neck_flexion	neck_bending	neck_rotation	arm_flex_r	arm_add_r	arm_rot_r	elbow_flex_r	pro_sup_r	wrist_flex_r	wrist_dev_r	arm_flex_l	arm_add_l	arm_rot_l	elbow_flex_l	pro_sup_l	wrist_flex_l	wrist_dev_l
      0.00000000	      6.72409922	     -4.64317306	     91.96366024	      0.31178096	      1.04527753	      0.44109530	      3.76811626	      0.03572219	    -11.02505326	     10.56519127	      0.18439737	     27.50213727	     12.88005697	      0.00000000	      3.70609863	     -1.22974077	      6.06953246	      7.87877487	      0.13751056	     23.11178524	    -13.59864759	      0.00000000	      0.25250382	      0.61890568	     -0.89734615	      0.46892484	      0.82314456	     -0.95343028	      0.41483852	      1.50480727	     -0.95343028	      0.28858661	      1.50480727	     -0.78517788	      0.23447504	      1.26207247	     -0.72909374	      0.14428068	      0.95868490	     -0.67300961	      1.80360951	      7.00118485	     -4.99077006	      0.00000000	      0.00000000	     28.19028577	      3.38229032	      3.28150469	     13.50575296	    -13.11233828	     70.31297925	     53.06445301	     89.13036405	     -0.09736792	     11.13175110	     12.61980761	    -10.96949014	     64.80968132	     47.45210487	     87.82968678	    -11.07883548	    -11.57641781
      0.01694915	      7.01386202	     -4.60350406	     92.79973148	      0.31099448	      1.04502922	      0.44036227	      3.44972180	      0.43503713	    -10.66141180	     10.13458653	      0.17688190	     27.46058174	     11.41958017	      0.00000000	      3.62395604	     -1.41380079	      7.37731055	      8.08432347	      0.14109806	     22.97316992	    -14.67939816	      0.00000000	      0.24663204	      0.65049368	     -0.99956249	      0.45802035	      0.86515660	     -1.06203515	      0.40519177	      1.58161034	     -1.06203515	      0.28187575	      1.58161034	     -0.87461718	      0.22902251	      1.32648671	     -0.81214453	      0.14092554	      1.00761471	     -0.74967187	      1.76166796	      7.35851462	     -5.55926672	      0.00000000	      0.00000000	     28.19570595	      2.23008937	      1.67313594	     12.72228034	    -13.35246241	     68.39807510	     53.32808204	     89.03863114	     -0.45317286	     10.32429163	     13.25665206	    -10.63753979	     66.25694915	     46.82126422	     87.65537627	    -10.94558289	    -12.03135357
      0.03389831	      7.16507516	     -4.51075037	     93.32203433	      0.31062999	      1.04489637	      0.43984374	      3.16858058	      0.73251722	     -9.62834922	      9.86412644	      0.17216148	     27.28708591	      9.33040069	      0.00000000	      3.54143567	     -1.55898604	      7.45032143	      8.34645290	      0.14567308	     23.30082998	    -14.20965411	      0.00000000	      0.23370801	      0.66536864	     -1.05086009	      0.43401914	      0.88494029	     -1.11653885	      0.38395888	      1.61777730	     -1.11653885	      0.26710488	      1.61777730	     -0.91950258	      0.21702125	      1.35681972	     -0.85382382	      0.13354075	      1.03065602	     -0.78814507	      1.66935291	      7.52678309	     -5.84456857	      0.00000000	      0.00000000	     28.20925428	      1.59563895	      0.84417938	     12.23732238	    -13.51835706	     67.22845452	     53.55828727	     88.99607423	     -0.95515948	      9.52944334	     13.98254774	    -10.35724566	     68.08506290	     46.07086128	     87.44321974	    -11.73914232	    -13.19391345
      0.05084746	      7.25115174	     -4.46025493	     93.62871954	      0.31053254	      1.04478744	      0.43938185	      2.95308935	      0.98106725	     -8.26611755	      9.61643295	      0.16783842	     26.89974093	      6.95821109	      0.00000000	      3.48999985	     -1.68425579	      7.09136195	      8.52164769	      0.14873081	     23.68673603	    -13.26774406	      0.00000000	      0.22954970	      0.67065812	     -1.10868305	      0.42629675	      0.89197530	     -1.17797574	      0.37712721	      1.63063815	     -1.17797574	      0.26235236	      1.63063815	     -0.97009767	      0.21315985	      1.36760604	     -0.90080498	      0.13116470	      1.03884943	     -0.83151229	      1.63965057	      7.58661877	     -6.16616252	      0.00000000	      0.00000000	     28.21477737	      1.55901178	      0.70062920	     12.19746025	    -13.60589710	     67.16180857	     53.68795894	     89.00199678	     -1.63166249	      8.66730178	     14.29385707	    -10.22926372	     68.94156759	     45.65240374	     87.24202874	    -12.09765215	    -13.79929607
      0.06779661	      7.22932647	     -4.40505450	     93.96945845	      0.31025096	      1.04467529	      0.43898408	      2.75938353	      0.96258754	     -8.58854159	      9.52726890	      0.16628221	     26.80264649	      6.77193618	      0.00000000	      3.44396988	     -1.67385347	      7.09402756	      8.63394958	      0.15069085	     23.91139463	    -12.72829284	      0.00000000	      0.22735698	      0.66204174	     -1.18854130	      0.42222465	      0.88051551	     -1.26282513	      0.37352478	      1.60968829	     -1.26282513	      0.25984629	      1.60968829	     -1.03997364	      0.21112369	      1.35003552	     -0.96568981	      0.12991178	      1.02550266	     -0.89140598	      1.62398818	      7.48914858	     -6.61031016	      0.00000000	      0.00000000	     28.22006384	      1.78631487	      0.86501321	     12.46553728	    -13.64553925	     67.84433608	     53.72403829	     89.04081882	     -2.43631779	      7.72899742	     14.45716443	    -10.19209126	     69.31208940	     45.36538910	     87.12457716	    -11.86046914	    -14.19395629
      0.08474576	      7.22049305	     -4.32331716	     94.02292843	      0.31056649	      1.04464562	      0.43866779	      2.58183453	      0.99226714	     -8.67169811	      9.47382610	      0.16534946	     26.66610784	      6.57373504	      0.00000000	      3.40946988	     -1.77738387	      5.90371738	      8.83002527	      0.15411301	     24.53027919	    -10.97153298	      0.00000000	      0.21618089	      0.65019443	     -1.22580854	      0.40146953	      0.86475859	     -1.30242158	      0.35516359	      1.58088273	     -1.30242158	      0.24707314	      1.58088273	     -1.07258247	      0.20074558	      1.32587647	     -0.99596944	      0.12352576	      1.00715117	     -0.91935641	      1.54415849	      7.35512938	     -6.81757937	      0.00000000	      0.00000000	     28.21998779	      2.28987945	      1.19807041	     12.90109187	    -13.60340471	     68.81224692	     53.69994855	     89.11522557	     -3.08812163	      6.98470788	     14.62696047	    -10.36309689	     69.77694322	     45.37114520	     86.95392185	    -11.98853750	    -14.63506661
      0.10169492	      7.05616528	     -4.33568516	     94.14280958	      0.31027945	      1.04471038	      0.43849797	      2.53809841	      0.74377084	     -9.41364614	      9.52989064	      0.16632797	     26.67913357	      7.31054984	      0.00000000	      3.35115272	     -1.53532531	      7.15700728	      8.72748571	      0.15232336	     24.00201794	    -12.36694192	      0.00000000	      0.21659965	      0.62812590	     -1.31126921	      0.40224721	      0.83540745	     -1.39322354	      0.35585156	      1.52722532	     -1.39322354	      0.24755174	      1.52722532	     -1.14736056	      0.20113443	      1.28087434	     -1.06540623	      0.12376504	      0.97296702	     -0.98345191	      1.54714963	      7.10548585	     -7.29288598	      0.00000000	      0.00000000	     28.22279255	      3.03028554	      2.05058499	     13.95554385	    -13.50865238	     71.28753766	     53.40050684	     89.16081034	     -4.57311059	      5.89836472	     14.47279395	    -10.36226521	     69.37769265	     45.10883540	     87.01096083	    -11.82560963	    -14.87179989
      0.11864407	      6.90751214	     -4.31231900	     94.17992814	      0.31031259	      1.04476667	      0.43836866	      2.46544253	      0.53338605	    -10.37110091	      9.57086360	      0.16704308	     26.67018332	      8.27335215	      0.00000000	      3.26532978	     -1.36483985	      7.69432567	      8.63753626	      0.15075345	     23.81186260	    -12.95329537	      0.00000000	      0.20406609	      0.60460490	     -1.34827438	      0.37897113	      0.80412452	     -1.43254153	      0.33526017	      1.47003636	     -1.43254153	      0.23322713	      1.47003636	     -1.17974008	      0.18949577	      1.23291032	     -1.09547293	      0.11660336	      0.93653299	     -1.01120578	      1.45762364	      6.83941158	     -7.49869760	      0.00000000	      0.00000000	     28.21322233	      3.81854671	      2.83775446	     14.87593115	    -13.37886539	     73.23502999	     53.18592258	     89.21014173	     -5.51697402	      5.38974801	     14.43737063	    -10.56970664	     69.03914560	     45.30641822	     87.17851388	    -11.06503975	    -14.54327596
      0.13559322	      6.74792852	     -4.31949195	     93.89036837	      0.31055652	      1.04490554	      0.43831275	      2.47577763	      0.39994424	     -9.68096484	      9.60181842	      0.16758335	     26.46772100	      7.54798523	      0.00000000	      3.17716209	     -1.18739602	      7.92086352	      8.52425909	      0.14877639	     23.46872324	    -13.62854441	      0.00000000	      0.18743861	      0.58463202	     -1.29352947	      0.34809224	      0.77756059	     -1.37437507	      0.30794289	      1.42147430	     -1.37437507	      0.21422358	      1.42147430	     -1.13183829	      0.17405549	      1.19218162	     -1.05099270	      0.10710242	      0.90559500	     -0.97014711	      1.33885522	      6.61347437	     -7.19422288	      0.00000000	      0.00000000	     28.19748743	      4.15130392	      3.25534441	     15.44262122	    -13.32893724	     74.35496310	     53.04146656	     89.23356687	     -6.34767779	      5.07671634	     14.48512168	    -10.63783556	     68.69825390	     45.35342752	     87.23469226	     -9.97922040	    -14.19678346
      0.15254237	      6.59329568	     -4.35121722	     93.69234052	      0.31066181	      1.04494943	      0.43828014	      2.52027281	      0.18876269	     -9.96060334	      9.66199931	      0.16863370	     26.44453852	      8.11337943	      0.00000000	      3.16020125	     -1.01784135	      8.06450986	      8.46872431	      0.14780712	     23.19771472	    -14.01718624	      0.00000000	      0.16776390	      0.56814539	     -1.24873399	      0.31155435	      0.75563338	     -1.32677986	      0.27561932	      1.38138871	     -1.32677986	      0.19173737	      1.38138871	     -1.09264224	      0.15578556	      1.15856209	     -1.01459636	      0.09586030	      0.88005722	     -0.93655049	      1.19832080	      6.42697434	     -6.94508381	      0.00000000	      0.00000000	     28.17488311	      4.42277583	      3.62229789	     15.67290678	    -13.32131067	     74.48885331	     53.05171928	     89.21958167	     -6.50098224	      5.33302025	     14.48307107	    -10.71371780	     68.11310115	     45.55946143	     87.27479706	     -8.73625082	    -13.64915986
